<svg width="88" height="89" viewBox="0 0 88 89" fill="none" xmlns="http://www.w3.org/2000/svg">
<g filter="url(#filter0_d_2_105)">
<circle cx="44" cy="40.0228" r="40" fill="#3333D9"/>
<path d="M55.1667 52.1895H31.8333V28.8562H46.8333V25.5228H31.8333C30 25.5228 28.5 27.0228 28.5 28.8562V52.1895C28.5 54.0228 30 55.5228 31.8333 55.5228H55.1667C57 55.5228 58.5 54.0228 58.5 52.1895V37.1895H55.1667V52.1895ZM42.1833 46.9062L38.9167 42.9728L34.3333 48.8562H52.6667L46.7667 41.0062L42.1833 46.9062ZM58.5 25.5228V20.5228H55.1667V25.5228H50.1667C50.1833 25.5395 50.1667 28.8562 50.1667 28.8562H55.1667V33.8395C55.1833 33.8562 58.5 33.8395 58.5 33.8395V28.8562H63.5V25.5228H58.5Z" fill="#FAFBFB"/>
</g>
<defs>
<filter id="filter0_d_2_105" x="0" y="0.0228271" width="88" height="88" filterUnits="userSpaceOnUse" color-interpolation-filters="sRGB">
<feFlood flood-opacity="0" result="BackgroundImageFix"/>
<feColorMatrix in="SourceAlpha" type="matrix" values="0 0 0 0 0 0 0 0 0 0 0 0 0 0 0 0 0 0 127 0" result="hardAlpha"/>
<feOffset dy="4"/>
<feGaussianBlur stdDeviation="2"/>
<feComposite in2="hardAlpha" operator="out"/>
<feColorMatrix type="matrix" values="0 0 0 0 0 0 0 0 0 0 0 0 0 0 0 0 0 0 0.25 0"/>
<feBlend mode="normal" in2="BackgroundImageFix" result="effect1_dropShadow_2_105"/>
<feBlend mode="normal" in="SourceGraphic" in2="effect1_dropShadow_2_105" result="shape"/>
</filter>
</defs>
</svg>
