<svg width="81" height="81" viewBox="0 0 81 81" fill="none" xmlns="http://www.w3.org/2000/svg">
<circle cx="40.4557" cy="40.897" r="40" fill="#3333D9"/>
<rect width="40" height="40" transform="translate(20.4557 20.897)" fill="#3333D9"/>
<path d="M46.7155 44.6551H45.3988L44.9322 44.2051C46.5655 42.3051 47.5488 39.8384 47.5488 37.1551C47.5488 31.1718 42.6988 26.3218 36.7155 26.3218C30.7322 26.3218 25.8822 31.1718 25.8822 37.1551C25.8822 43.1384 30.7322 47.9884 36.7155 47.9884C39.3988 47.9884 41.8655 47.0051 43.7655 45.3718L44.2155 45.8384V47.1551L52.5488 55.4718L55.0322 52.9884L46.7155 44.6551ZM36.7155 44.6551C32.5655 44.6551 29.2155 41.3051 29.2155 37.1551C29.2155 33.0051 32.5655 29.6551 36.7155 29.6551C40.8655 29.6551 44.2155 33.0051 44.2155 37.1551C44.2155 41.3051 40.8655 44.6551 36.7155 44.6551Z" fill="#FAFBFB"/>
</svg>
