<svg width="81" height="81" viewBox="0 0 81 81" fill="none" xmlns="http://www.w3.org/2000/svg">
<circle cx="40.2106" cy="40.5469" r="40" fill="#3333D9"/>
<path d="M52.5977 42.1802C52.6643 41.6469 52.7143 41.1135 52.7143 40.5469C52.7143 39.9802 52.6643 39.4469 52.5977 38.9135L56.1143 36.1635C56.431 35.9135 56.5143 35.4635 56.3143 35.0969L52.981 29.3302C52.831 29.0635 52.5476 28.9135 52.2476 28.9135C52.1476 28.9135 52.0476 28.9302 51.9643 28.9635L47.8143 30.6302C46.9476 29.9635 46.0143 29.4135 44.9976 28.9969L44.3643 24.5802C44.3143 24.1802 43.9643 23.8802 43.5477 23.8802H36.881C36.4643 23.8802 36.1143 24.1802 36.0643 24.5802L35.431 28.9969C34.4143 29.4135 33.481 29.9802 32.6143 30.6302L28.4643 28.9635C28.3643 28.9302 28.2643 28.9135 28.1643 28.9135C27.881 28.9135 27.5977 29.0635 27.4477 29.3302L24.1143 35.0969C23.8976 35.4635 23.9977 35.9135 24.3143 36.1635L27.831 38.9135C27.7643 39.4469 27.7143 39.9969 27.7143 40.5469C27.7143 41.0969 27.7643 41.6469 27.831 42.1802L24.3143 44.9302C23.9977 45.1802 23.9143 45.6302 24.1143 45.9969L27.4477 51.7635C27.5977 52.0302 27.881 52.1802 28.181 52.1802C28.281 52.1802 28.381 52.1635 28.4643 52.1302L32.6143 50.4635C33.481 51.1302 34.4143 51.6802 35.431 52.0969L36.0643 56.5135C36.1143 56.9135 36.4643 57.2135 36.881 57.2135H43.5477C43.9643 57.2135 44.3143 56.9135 44.3643 56.5135L44.9976 52.0969C46.0143 51.6802 46.9476 51.1135 47.8143 50.4635L51.9643 52.1302C52.0643 52.1635 52.1643 52.1802 52.2643 52.1802C52.5476 52.1802 52.831 52.0302 52.981 51.7635L56.3143 45.9969C56.5143 45.6302 56.431 45.1802 56.1143 44.9302L52.5977 42.1802ZM49.2977 39.3302C49.3643 39.8469 49.381 40.1969 49.381 40.5469C49.381 40.8969 49.3477 41.2635 49.2977 41.7635L49.0643 43.6469L50.5477 44.8135L52.3477 46.2135L51.181 48.2302L49.0643 47.3802L47.331 46.6802L45.831 47.8135C45.1143 48.3469 44.431 48.7469 43.7476 49.0302L41.981 49.7469L41.7143 51.6302L41.381 53.8802H39.0477L38.4643 49.7469L36.6977 49.0302C35.981 48.7302 35.3143 48.3469 34.6476 47.8469L33.131 46.6802L31.3643 47.3969L29.2477 48.2469L28.081 46.2302L29.881 44.8302L31.3643 43.6635L31.131 41.7802C31.081 41.2635 31.0476 40.8802 31.0476 40.5469C31.0476 40.2135 31.081 39.8302 31.131 39.3302L31.3643 37.4469L29.881 36.2802L28.081 34.8802L29.2477 32.8635L31.3643 33.7135L33.0976 34.4135L34.5976 33.2802C35.3143 32.7469 35.9976 32.3469 36.681 32.0635L38.4476 31.3469L38.7143 29.4635L39.0477 27.2135H41.3643L41.9477 31.3469L43.7143 32.0635C44.431 32.3635 45.0977 32.7469 45.7643 33.2469L47.281 34.4135L49.0476 33.6969L51.1643 32.8469L52.331 34.8635L50.5477 36.2802L49.0643 37.4469L49.2977 39.3302ZM40.2143 33.8802C36.531 33.8802 33.5476 36.8635 33.5476 40.5469C33.5476 44.2302 36.531 47.2135 40.2143 47.2135C43.8977 47.2135 46.881 44.2302 46.881 40.5469C46.881 36.8635 43.8977 33.8802 40.2143 33.8802ZM40.2143 43.8802C38.381 43.8802 36.881 42.3802 36.881 40.5469C36.881 38.7135 38.381 37.2135 40.2143 37.2135C42.0477 37.2135 43.5477 38.7135 43.5477 40.5469C43.5477 42.3802 42.0477 43.8802 40.2143 43.8802Z" fill="#FAFBFB"/>
</svg>
