<svg width="81" height="81" viewBox="0 0 81 81" fill="none" xmlns="http://www.w3.org/2000/svg">
<circle cx="40" cy="40.0229" r="40" fill="#3333D9"/>
<path d="M31.6666 25H26.6666V30H23.3333V21.6667H31.6666V25ZM56.6666 30V21.6667H48.3333V25H53.3333V30H56.6666ZM31.6666 55H26.6666V50H23.3333V58.3333H31.6666V55ZM53.3333 50V55H48.3333V58.3333H56.6666V50H53.3333ZM48.3333 30H31.6666V50H48.3333V30ZM51.6666 50C51.6666 51.8333 50.1666 53.3333 48.3333 53.3333H31.6666C29.8333 53.3333 28.3333 51.8333 28.3333 50V30C28.3333 28.1667 29.8333 26.6667 31.6666 26.6667H48.3333C50.1666 26.6667 51.6666 28.1667 51.6666 30V50ZM45 33.3333H35V36.6667H45V33.3333ZM45 38.3333H35V41.6667H45V38.3333ZM45 43.3333H35V46.6667H45V43.3333Z" fill="#FAFBFB"/>
</svg>
