<svg width="81" height="81" viewBox="0 0 81 81" fill="none" xmlns="http://www.w3.org/2000/svg">
<path d="M80.2854 40.4762C80.2854 62.5676 62.3768 80.4762 40.2854 80.4762C18.194 80.4762 0.28537 62.5676 0.28537 40.4762C0.28537 18.3848 18.194 0.476196 40.2854 0.476196C62.3768 0.476196 80.2854 18.3848 80.2854 40.4762Z" fill="#3333D9"/>
<path d="M30.0007 45.0224C28.6173 45.0224 27.3673 45.5891 26.4673 46.4891C24.5007 48.4557 23.334 56.6891 23.334 56.6891C23.334 56.6891 31.5673 55.5224 33.534 53.5557C34.434 52.6557 35.0007 51.4057 35.0007 50.0224C35.0007 47.2557 32.7673 45.0224 30.0007 45.0224ZM31.184 51.2057C30.7173 51.6724 27.5673 52.4724 27.5673 52.4724C27.5673 52.4724 28.3507 49.3391 28.834 48.8557C29.1173 48.5391 29.534 48.3557 30.0007 48.3557C30.9173 48.3557 31.6673 49.1057 31.6673 50.0224C31.6673 50.4891 31.484 50.9057 31.184 51.2057ZM49.034 42.7724C59.634 32.1724 56.1007 23.9224 56.1007 23.9224C56.1007 23.9224 47.8507 20.3891 37.2507 30.9891L33.1007 30.1557C32.0173 29.9391 30.884 30.2891 30.084 31.0724L23.334 37.8391L31.6673 41.4057L38.6173 48.3557L42.184 56.6891L48.934 49.9391C49.7173 49.1557 50.0673 48.0224 49.8507 46.9224L49.034 42.7724ZM32.3507 38.0724L29.1673 36.7057L32.4507 33.4224L34.8507 33.9057C33.9007 35.2891 33.0507 36.7391 32.3507 38.0724ZM43.3173 50.8557L41.9507 47.6724C43.284 46.9724 44.734 46.1224 46.1007 45.1724L46.584 47.5724L43.3173 50.8557ZM46.6673 40.4224C44.4673 42.6224 41.034 44.4224 39.934 44.9724L35.0507 40.0891C35.584 39.0057 37.384 35.5724 39.6007 33.3557C47.4007 25.5557 53.3173 26.7057 53.3173 26.7057C53.3173 26.7057 54.4673 32.6224 46.6673 40.4224ZM45.0007 38.3557C46.834 38.3557 48.334 36.8557 48.334 35.0224C48.334 33.1891 46.834 31.6891 45.0007 31.6891C43.1673 31.6891 41.6673 33.1891 41.6673 35.0224C41.6673 36.8557 43.1673 38.3557 45.0007 38.3557Z" fill="#FAFBFB"/>
</svg>
