<svg width="399" height="329" viewBox="0 0 399 329" fill="none" xmlns="http://www.w3.org/2000/svg">
<mask id="mask0_7_328" style="mask-type:luminance" maskUnits="userSpaceOnUse" x="0" y="0" width="400" height="329">
<path d="M399.001 0H0.117676V328.099H399.001V0Z" fill="white"/>
</mask>
<g mask="url(#mask0_7_328)">
<path d="M30.8009 60.1509C30.8009 62.4998 28.8968 64.404 26.5478 64.404C24.1989 64.404 22.2947 62.4998 22.2947 60.1509C22.2947 57.802 24.1989 55.8978 26.5478 55.8978C28.8968 55.8978 30.8009 57.802 30.8009 60.1509Z" fill="white"/>
<path d="M108.876 24.3036C108.876 26.6525 106.972 28.5567 104.623 28.5567C102.274 28.5567 100.37 26.6525 100.37 24.3036C100.37 21.9546 102.274 20.0504 104.623 20.0504C106.972 20.0504 108.876 21.9546 108.876 24.3036Z" fill="white"/>
<path d="M181.789 34.3288C181.789 36.6778 179.885 38.582 177.536 38.582C175.187 38.582 173.282 36.6778 173.282 34.3288C173.282 31.9799 175.187 30.0757 177.536 30.0757C179.885 30.0757 181.789 31.9799 181.789 34.3288Z" fill="white"/>
<path d="M39.3073 139.138C39.3073 141.487 37.4031 143.391 35.0542 143.391C32.7052 143.391 30.801 141.487 30.801 139.138C30.801 136.789 32.7052 134.885 35.0542 134.885C37.4031 134.885 39.3073 136.789 39.3073 139.138Z" fill="white"/>
<path d="M128.013 99.9499C128.013 102.299 126.109 104.203 123.76 104.203C121.411 104.203 119.507 102.299 119.507 99.9499C119.507 97.6009 121.411 95.6967 123.76 95.6967C126.109 95.6967 128.013 97.6009 128.013 99.9499Z" fill="white"/>
<path d="M123.763 155.846C123.763 158.195 121.859 160.099 119.51 160.099C117.161 160.099 115.257 158.195 115.257 155.846C115.257 153.497 117.161 151.593 119.51 151.593C121.859 151.593 123.763 153.497 123.763 155.846Z" fill="white"/>
<path d="M132.27 303.795C132.27 306.144 130.366 308.049 128.017 308.049C125.668 308.049 123.764 306.144 123.764 303.795C123.764 301.446 125.668 299.542 128.017 299.542C130.366 299.542 132.27 301.446 132.27 303.795Z" fill="white"/>
<path d="M197.585 268.858C197.585 271.207 195.681 273.112 193.332 273.112C190.983 273.112 189.079 271.207 189.079 268.858C189.079 266.51 190.983 264.605 193.332 264.605C195.681 264.605 197.585 266.51 197.585 268.858Z" fill="white"/>
<path d="M264.721 299.543C264.721 301.892 262.817 303.796 260.468 303.796C258.119 303.796 256.215 301.892 256.215 299.543C256.215 297.194 258.119 295.29 260.468 295.29C262.817 295.29 264.721 297.194 264.721 299.543Z" fill="white"/>
<path d="M354.649 273.112C354.649 275.461 352.745 277.365 350.396 277.365C348.047 277.365 346.143 275.461 346.143 273.112C346.143 270.763 348.047 268.859 350.396 268.859C352.745 268.859 354.649 270.763 354.649 273.112Z" fill="white"/>
<path d="M372.569 149.163C372.569 151.512 370.665 153.417 368.316 153.417C365.967 153.417 364.063 151.512 364.063 149.163C364.063 146.814 365.967 144.91 368.316 144.91C370.665 144.91 372.569 146.814 372.569 149.163Z" fill="white"/>
<path d="M214.293 73.519C214.293 75.868 212.388 77.7721 210.04 77.7721C207.691 77.7721 205.786 75.868 205.786 73.519C205.786 71.1701 207.691 69.2659 210.04 69.2659C212.388 69.2659 214.293 71.1701 214.293 73.519Z" fill="white"/>
<path d="M288.118 113.619C288.118 115.968 286.213 117.872 283.864 117.872C281.516 117.872 279.611 115.968 279.611 113.619C279.611 111.27 281.516 109.366 283.864 109.366C286.213 109.366 288.118 111.27 288.118 113.619Z" fill="white"/>
<path d="M336.117 200.201C336.117 202.55 334.212 204.454 331.863 204.454C329.515 204.454 327.61 202.55 327.61 200.201C327.61 197.852 329.515 195.948 331.863 195.948C334.212 195.948 336.117 197.852 336.117 200.201Z" fill="white"/>
<path d="M273.229 49.8223C273.229 52.1712 271.325 54.0754 268.976 54.0754C266.627 54.0754 264.723 52.1712 264.723 49.8223C264.723 47.4733 266.627 45.5692 268.976 45.5692C271.325 45.5692 273.229 47.4733 273.229 49.8223Z" fill="white"/>
<path d="M354.649 38.5821C354.649 40.9311 352.745 42.8352 350.396 42.8352C348.047 42.8352 346.143 40.9311 346.143 38.5821C346.143 36.2332 348.047 34.329 350.396 34.329C352.745 34.329 354.649 36.2332 354.649 38.5821Z" fill="white"/>
<path d="M47.8119 286.176C47.8119 288.525 45.9077 290.429 43.5588 290.429C41.2099 290.429 39.3057 288.525 39.3057 286.176C39.3057 283.827 41.2099 281.923 43.5588 281.923C45.9077 281.923 47.8119 283.827 47.8119 286.176Z" fill="white"/>
<path d="M67.5597 208.707C67.5597 211.056 65.6555 212.96 63.3066 212.96C60.9577 212.96 59.0535 211.056 59.0535 208.707C59.0535 206.358 60.9577 204.454 63.3066 204.454C65.6555 204.454 67.5597 206.358 67.5597 208.707Z" fill="white"/>
<path d="M132.27 227.846C132.27 230.195 130.366 232.099 128.017 232.099C125.668 232.099 123.764 230.195 123.764 227.846C123.764 225.497 125.668 223.593 128.017 223.593C130.366 223.593 132.27 225.497 132.27 227.846Z" fill="white"/>
<path d="M35.0547 139.139H145.349" stroke="white" stroke-width="1.21518" stroke-miterlimit="10"/>
<path d="M63.3064 208.707L88.67 175.089H150.793" stroke="white" stroke-width="1.21518" stroke-miterlimit="10"/>
<path d="M128.015 227.847L67.5596 303.795" stroke="white" stroke-width="1.21518" stroke-miterlimit="10"/>
<path d="M43.5603 286.175L113.129 195.948H170.827" stroke="white" stroke-width="1.21518" stroke-miterlimit="10"/>
<path d="M128.014 303.795L166.292 253.972L166.52 208.707" stroke="white" stroke-width="1.21518" stroke-miterlimit="10"/>
<path d="M193.332 268.858V308.048" stroke="white" stroke-width="1.21518" stroke-miterlimit="10"/>
<path d="M177.534 34.3292V100.026" stroke="white" stroke-width="1.21518" stroke-miterlimit="10"/>
<path d="M238.293 114.919V71.9996L268.977 49.8226" stroke="white" stroke-width="1.21518" stroke-miterlimit="10"/>
<path d="M119.509 155.848H67.5601L29.3271 208.709" stroke="white" stroke-width="1.21518" stroke-miterlimit="10"/>
<path d="M123.763 99.9485L67.561 38.5818H26.5486" stroke="white" stroke-width="1.21518" stroke-miterlimit="10"/>
<path d="M26.5486 60.152L79.7128 121.823H147.27" stroke="white" stroke-width="1.21518" stroke-miterlimit="10"/>
<path d="M104.624 24.3036L147.27 69.2654V113.678" stroke="white" stroke-width="1.21518" stroke-miterlimit="10"/>
<path d="M260.47 299.543V241.062L228.291 208.708" stroke="white" stroke-width="1.21518" stroke-miterlimit="10"/>
<path d="M350.393 273.112L249.854 184.031" stroke="white" stroke-width="1.21518" stroke-miterlimit="10"/>
<path d="M331.861 200.201L302.043 175.09H253.633" stroke="white" stroke-width="1.21518" stroke-miterlimit="10"/>
<path d="M350.394 38.5818L251.317 100.026V114.918" stroke="white" stroke-width="1.21518" stroke-miterlimit="10"/>
<path d="M283.863 113.618L342.999 77.7704H372.571" stroke="white" stroke-width="1.21518" stroke-miterlimit="10"/>
<path d="M210.041 73.5187L210.134 45.5696L241.939 22.1773" stroke="white" stroke-width="1.21518" stroke-miterlimit="10"/>
<path d="M368.318 149.163H253.771" stroke="white" stroke-width="1.21518" stroke-miterlimit="10"/>
<path d="M138.647 112.825V166.282C138.647 186.168 148.355 204.803 164.653 216.2L199.558 240.609L234.464 216.2C250.761 204.803 260.469 186.168 260.469 166.282V112.825L199.558 87.4907L138.647 112.825Z" fill="#025EB5" fill-opacity="0.7"/>
<path d="M170.827 139.887V163.252C170.827 173.792 175.972 183.669 184.61 189.709L199.559 200.162L214.508 189.709C223.145 183.669 228.291 173.792 228.291 163.252V139.887L199.559 127.937L170.827 139.887Z" fill="white"/>
<path d="M146.001 117.548L200.213 95.0001L254.423 117.548V161.632C254.423 181.521 244.716 200.156 228.418 211.551L200.213 231.277L172.006 211.551C155.71 200.156 146.001 181.521 146.001 161.632V117.548Z" stroke="white" stroke-width="1.51898"/>
<path d="M189.452 147.57C185.074 150.631 184.007 156.663 187.069 161.041C190.131 165.419 196.162 166.486 200.54 163.425C204.918 160.363 205.986 154.332 202.924 149.953C199.862 145.575 193.831 144.508 189.452 147.57ZM199.442 161.855C195.931 164.31 191.094 163.454 188.639 159.943C186.183 156.432 187.039 151.595 190.551 149.139C194.062 146.684 198.899 147.54 201.354 151.051C203.809 154.563 202.954 159.399 199.442 161.855Z" fill="#025EB5"/>
<path d="M213.346 178.173L209.818 180.534L198.001 164.361L201.529 162L213.346 178.173Z" fill="#025EB5"/>
</g>
</svg>
